<?xml version="1.0" encoding="utf-8"?>
<!-- Generator: Adobe Illustrator 16.0.0, SVG Export Plug-In . SVG Version: 6.00 Build 0)  -->
<!DOCTYPE svg PUBLIC "-//W3C//DTD SVG 1.1//EN" "http://www.w3.org/Graphics/SVG/1.1/DTD/svg11.dtd">
<svg version="1.1" xmlns="http://www.w3.org/2000/svg" xmlns:xlink="http://www.w3.org/1999/xlink" x="0px" y="0px" width="174px"
	 height="41px" viewBox="0 0 174 41" enable-background="new 0 0 174 41" xml:space="preserve">
<g id="Capa_1">
</g>
<g id="Capa_2">
	<g>
		<polygon fill="#FCEE21" points="168.209,29.536 83.6,29.536 88.477,2.498 173.086,2.498 		"/>
	</g>
	<g>
		<g>
			<path fill-rule="evenodd" clip-rule="evenodd" fill="#FFFFFF" d="M5.983,7.88c0.331,3.149,0.752,6.191,1.117,9.304
				c1.201-3.07,2.299-6.23,3.501-9.302c1.476,0.017,2.938,0.051,4.459,0.015c-2.033,5.214-4.234,10.284-6.357,15.421
				c-1.61-0.032-3.247-0.035-4.885-0.035C3.065,18.187,2.192,12.926,1.577,7.86C3.102,7.828,4.654,7.846,5.983,7.88z"/>
		</g>
		<g>
			<path fill-rule="evenodd" clip-rule="evenodd" fill="#FFFFFF" d="M22.97,7.955c1.12,5.108,2.159,10.308,3.253,15.448
				c-1.566,0.047-3.037-0.013-4.565-0.006c-0.127-0.698-0.187-1.474-0.331-2.149c-1.376-0.135-2.934-0.056-4.411-0.072
				c-0.426,0.651-0.621,1.501-0.992,2.202c-1.424-0.04-2.861-0.063-4.353-0.023c1.6-3.739,3.508-7.646,5.293-11.461
				c0.618-1.326,1.259-2.899,1.914-3.921C20.222,7.912,21.536,8.003,22.97,7.955z M18.569,17.012
				c-0.586,0.156-1.965,0.562-2.478,0.78c1.546-0.064,3.18,0.139,4.751,0.045c-0.194-1.599-0.367-3.224-0.692-4.668
				C19.608,14.639,19.206,15.622,18.569,17.012z"/>
		</g>
		<g>
			<path fill-rule="evenodd" clip-rule="evenodd" fill="#FFFFFF" d="M33.482,8.017c-0.415,3.854-0.951,7.608-1.421,11.416
				c2.028,0.1,4.198,0.034,6.269,0.083c-0.142,1.337-0.349,2.618-0.479,3.965c-3.614,0.012-7.35-0.047-10.671-0.05
				c0.581-5.14,1.261-10.195,1.909-15.276c-0.044-0.084,0.086-0.238,0.098-0.115C30.676,7.976,32.139,8.082,33.482,8.017z"/>
		</g>
		<g>
			<path fill-rule="evenodd" clip-rule="evenodd" fill="#FFFFFF" d="M40.494,8.092c3.83,0.292,8.582-0.748,10.873,1.253
				c3.056,2.667,1.776,9.123-0.241,11.589c-1.193,1.459-3.144,2.45-5.469,2.612c-2.35,0.165-4.713-0.144-7.169-0.063
				c0.637-5.076,1.296-10.132,1.914-15.224C40.443,8.213,40.421,8.112,40.494,8.092z M44.212,13.143
				c-0.264,2.282-0.551,4.085-0.786,6.391c1.003-0.035,1.566,0.135,2.491-0.04c1.931-0.368,3.009-2.773,2.798-4.841
				c-0.318-3.094-4.077-2.585-6.966-2.521C42.608,12.553,43.519,12.898,44.212,13.143z"/>
		</g>
		<g>
			<path fill-rule="evenodd" clip-rule="evenodd" fill="#FFFFFF" d="M66.721,8.224c-0.122,1.371-0.35,2.65-0.476,4.019
				c-2.422-0.041-4.867-0.056-7.328-0.051c-0.181,0.533-0.184,1.218-0.277,1.827c2.14,0.14,4.51,0.013,6.694,0.102
				c-0.172,1.196-0.349,2.389-0.452,3.644c-2.104,0.083-4.459-0.033-6.687,0.004c-0.15,0.56-0.172,1.229-0.278,1.827
				c2.462,0.108,5.057,0.063,7.596,0.083c-0.162,1.321-0.37,2.601-0.479,3.965c-4.031,0.021-7.98-0.055-11.998-0.05
				c0.583-5.138,1.264-10.191,1.909-15.277c-0.046-0.083,0.086-0.238,0.097-0.114C59.082,8.159,62.756,8.259,66.721,8.224z"/>
		</g>
		<g>
			<path fill-rule="evenodd" clip-rule="evenodd" fill="#FFFFFF" d="M80.69,8.382c0.001,0.017,0.002,0.035,0.004,0.051
				c-0.197,1.062-0.319,2.186-0.424,3.324c-1.736,1.834-6.296,6.838-6.901,7.015c-0.925,0.27-1.663,0.463-3.254,1.015
				c2.946,0.158,6.472,0.005,9.38,0.206c-0.099,1.291-0.323,2.476-0.442,3.75c-0.124,0.01-0.245,0.019-0.369,0.029
				c-4.109-0.106-8.083-0.017-12.322-0.129c0.104-1.254,0.272-2.453,0.451-3.646c2.262-2.394,4.759-4.933,7.062-7.251
				c0.113-0.113,0.396-0.242,0.336-0.452c-1.987-0.071-4.12,0.029-6.058-0.099c0.201-1.286,0.3-2.66,0.536-3.917
				C72.714,8.284,76.759,8.266,80.69,8.382z"/>
		</g>
	</g>
	<g>
		<path fill="#1AD2CD" d="M86.569,33.166h1.125l-2.163,5.58h-1.474l0.003-5.58h1.121c0.002,1.024-0.058,2.53-0.181,4.518
			C85.65,35.694,86.174,34.188,86.569,33.166z"/>
		<path fill="#1AD2CD" d="M88.345,38.746l1.084-5.58h1.108l-1.085,5.58H88.345z"/>
		<path fill="#1AD2CD" d="M94.921,33.166h1.125l-2.164,5.58h-1.474l0.003-5.58h1.121c0.002,1.024-0.058,2.53-0.181,4.518
			C94.002,35.694,94.526,34.188,94.921,33.166z"/>
		<path fill="#1AD2CD" d="M98.006,37.714h1.846l-0.201,1.032h-2.955l1.085-5.58h2.955l-0.201,1.032h-1.846l-0.241,1.24h1.537
			l-0.201,1.036h-1.537L98.006,37.714z"/>
		<path fill="#1AD2CD" d="M104.514,38.746l1.085-5.58h1.108l-0.884,4.548h1.537l-0.201,1.032H104.514z"/>
		<path fill="#1AD2CD" d="M110.178,37.614l-0.446,1.131h-1.121l2.167-5.58h1.474l-0.006,5.58h-1.125l0.004-1.131H110.178z
			 M110.58,36.582h0.541l0.191-2.378L110.58,36.582z"/>
		<path fill="#1AD2CD" d="M118.308,37.714h1.847l-0.202,1.032h-2.955l1.085-5.58h2.955l-0.201,1.032h-1.847l-0.241,1.24h1.537
			l-0.202,1.036h-1.537L118.308,37.714z"/>
		<path fill="#1AD2CD" d="M122.639,38.746h-1.125l1.382-2.79l-0.297-2.79h1.125c0.055,0.51,0.103,1.267,0.145,2.272
			c0.433-1.005,0.776-1.762,1.029-2.272h1.128l-1.385,2.79l0.301,2.79h-1.128c-0.057-0.513-0.105-1.27-0.145-2.272
			C123.235,37.476,122.892,38.233,122.639,38.746z"/>
		<path fill="#1AD2CD" d="M127.844,33.166h2.447c0.222,0,0.399,0.074,0.531,0.22c0.134,0.15,0.181,0.33,0.138,0.542l-0.28,1.438
			c-0.082,0.424-0.31,0.766-0.686,1.026c-0.354,0.244-0.759,0.366-1.217,0.366h-0.524l-0.386,1.989h-1.108L127.844,33.166z
			 M128.751,34.198l-0.297,1.527h0.524c0.35,0,0.548-0.12,0.593-0.36l0.228-1.167H128.751z"/>
		<path fill="#1AD2CD" d="M133.253,37.714h1.847l-0.201,1.032h-2.955l1.085-5.58h2.955l-0.201,1.032h-1.847l-0.241,1.24h1.537
			l-0.201,1.036h-1.537L133.253,37.714z"/>
		<path fill="#1AD2CD" d="M138.271,36.757l-0.386,1.989h-1.108l1.085-5.58h2.447c0.222,0,0.399,0.074,0.531,0.22
			c0.134,0.15,0.18,0.33,0.138,0.542l-0.28,1.438c-0.071,0.365-0.269,0.656-0.594,0.874c0.239,0.218,0.324,0.511,0.253,0.88
			l-0.316,1.626h-1.108l0.317-1.626c0.02-0.101-0.004-0.188-0.069-0.261c-0.066-0.068-0.152-0.102-0.257-0.102H138.271z
			 M139.125,35.725c0.105,0,0.205-0.035,0.297-0.105c0.093-0.069,0.148-0.153,0.168-0.254l0.228-1.167h-1.049l-0.297,1.527H139.125z
			"/>
		<path fill="#1AD2CD" d="M142.146,38.746l1.085-5.58h1.108l-1.084,5.58H142.146z"/>
		<path fill="#1AD2CD" d="M146.758,37.714h1.846l-0.201,1.032h-2.955l1.085-5.58h2.955l-0.201,1.032h-1.847l-0.241,1.24h1.537
			l-0.201,1.036h-1.537L146.758,37.714z"/>
		<path fill="#1AD2CD" d="M152.087,35.151l-0.699,3.595h-1.108l1.085-5.58h1.537l0.205,3.611l0.702-3.611h1.108l-1.085,5.58h-1.533
			L152.087,35.151z"/>
		<path fill="#1AD2CD" d="M159.014,34.198h-1.049l-0.683,3.516h1.049l0.165-0.855h1.108l-0.217,1.125
			c-0.042,0.211-0.158,0.391-0.35,0.541c-0.189,0.147-0.395,0.221-0.617,0.221h-1.629c-0.222,0-0.399-0.074-0.531-0.221
			c-0.134-0.149-0.18-0.33-0.138-0.541l0.788-4.056c0.042-0.211,0.158-0.392,0.35-0.542c0.188-0.146,0.395-0.22,0.616-0.22h1.629
			c0.222,0,0.398,0.074,0.531,0.22c0.134,0.15,0.18,0.33,0.139,0.542l-0.218,1.121h-1.108L159.014,34.198z"/>
		<path fill="#1AD2CD" d="M161.198,38.746l1.085-5.58h1.108l-1.085,5.58H161.198z"/>
		<path fill="#1AD2CD" d="M165.75,37.614l-0.445,1.131h-1.122l2.167-5.58h1.474l-0.007,5.58h-1.124l0.003-1.131H165.75z
			 M166.152,36.582h0.541l0.191-2.378L166.152,36.582z"/>
	</g>
	<g>
		<path fill="#1A1A1A" d="M94.185,20.782c0.967,0.581,2.345,1.04,3.843,1.04c1.353,0,2.586-0.628,2.586-1.909
			c0-0.918-0.701-1.523-2.2-2.296c-1.74-0.942-3.383-2.199-3.383-4.326c0-3.287,2.876-5.293,6.429-5.293
			c1.981,0,3.141,0.435,3.842,0.822l-1.087,2.9c-0.532-0.29-1.692-0.749-3.045-0.725c-1.62,0-2.466,0.822-2.466,1.716
			c0,0.943,0.991,1.522,2.369,2.296c1.981,1.04,3.238,2.368,3.238,4.302c0,3.625-2.997,5.487-6.623,5.487
			c-2.271,0-3.891-0.581-4.664-1.16L94.185,20.782z"/>
		<path fill="#1A1A1A" d="M111.272,11.308h-4.302l0.604-3.045h12.108l-0.58,3.045h-4.351l-2.489,13.245h-3.48L111.272,11.308z"/>
		<path fill="#1A1A1A" d="M134.378,14.789c0,2.973-1.04,5.849-2.901,7.686c-1.522,1.474-3.577,2.344-6.018,2.344
			c-4.229,0-6.598-2.997-6.598-6.792c0-2.948,1.088-5.873,2.997-7.709c1.522-1.45,3.601-2.32,5.945-2.32
			C132.105,7.997,134.378,10.897,134.378,14.789z M124.589,12.13c-1.305,1.281-2.03,3.819-2.03,5.776
			c0,2.296,1.04,4.012,3.408,4.012c1.015,0,1.981-0.459,2.731-1.184c1.281-1.281,1.982-3.963,1.982-5.849
			c0-2.03-0.725-3.987-3.288-3.987C126.305,10.897,125.339,11.357,124.589,12.13z"/>
		<path fill="#1A1A1A" d="M138.269,8.578c1.087-0.266,2.731-0.436,4.35-0.436c1.547,0,3.142,0.242,4.278,0.942
			c1.063,0.628,1.813,1.668,1.813,3.19c0,2.417-1.62,3.915-3.698,4.592v0.097c0.966,0.41,1.377,1.499,1.546,2.973
			c0.193,1.813,0.338,3.939,0.628,4.616h-3.577c-0.146-0.436-0.314-1.837-0.483-3.843c-0.145-1.981-0.822-2.586-2.199-2.586h-1.064
			l-1.208,6.429H135.2L138.269,8.578z M140.372,15.514h1.45c1.886,0,3.263-1.136,3.263-2.731c0-1.305-1.112-1.885-2.489-1.885
			c-0.653,0-1.064,0.048-1.354,0.121L140.372,15.514z"/>
		<path fill="#1A1A1A" d="M159.876,17.641h-5.801l-0.749,3.939h6.501l-0.556,2.973h-9.981l3.094-16.29h9.643l-0.58,2.973h-6.139
			l-0.677,3.48h5.801L159.876,17.641z"/>
	</g>
</g>
</svg>
