<?xml version="1.0" encoding="utf-8"?>
<!-- Generator: Adobe Illustrator 16.0.0, SVG Export Plug-In . SVG Version: 6.00 Build 0)  -->
<!DOCTYPE svg PUBLIC "-//W3C//DTD SVG 1.1//EN" "http://www.w3.org/Graphics/SVG/1.1/DTD/svg11.dtd">
<svg version="1.1" id="Capa_1" xmlns="http://www.w3.org/2000/svg" xmlns:xlink="http://www.w3.org/1999/xlink" x="0px" y="0px"
	 width="239.544px" height="52px" viewBox="0 0 239.544 52" enable-background="new 0 0 239.544 52" xml:space="preserve">
<g>
	<g>
		<polygon fill="#FCEE21" points="229.611,38.456 114.372,38.456 121.015,1.63 236.253,1.63 		"/>
	</g>
	<g>
		<g>
			<path fill-rule="evenodd" clip-rule="evenodd" fill="#FFFFFF" d="M8.657,8.961c0.45,4.289,1.024,8.433,1.521,12.671
				c1.636-4.181,3.131-8.485,4.769-12.669c2.01,0.022,4.001,0.069,6.073,0.02c-2.769,7.102-5.766,14.007-8.658,21.003
				c-2.192-0.044-4.422-0.047-6.653-0.047c-1.025-6.94-2.214-14.106-3.052-21.005C4.732,8.89,6.847,8.915,8.657,8.961z"/>
		</g>
		<g>
			<path fill-rule="evenodd" clip-rule="evenodd" fill="#FFFFFF" d="M31.794,9.063c1.525,6.957,2.941,14.04,4.43,21.041
				c-2.132,0.064-4.135-0.018-6.218-0.009c-0.173-0.951-0.255-2.007-0.45-2.928c-1.875-0.184-3.996-0.076-6.008-0.097
				c-0.581,0.887-0.846,2.045-1.351,2.999c-1.939-0.054-3.897-0.087-5.929-0.031c2.179-5.093,4.778-10.414,7.21-15.611
				c0.842-1.805,1.715-3.949,2.607-5.34C28.052,9.004,29.84,9.129,31.794,9.063z M25.799,21.399
				c-0.798,0.212-2.677,0.765-3.375,1.062c2.105-0.088,4.332,0.19,6.471,0.062c-0.264-2.178-0.499-4.391-0.942-6.358
				C27.215,18.167,26.667,19.505,25.799,21.399z"/>
		</g>
		<g>
			<path fill-rule="evenodd" clip-rule="evenodd" fill="#FFFFFF" d="M46.112,9.146c-0.565,5.251-1.295,10.362-1.936,15.549
				c2.762,0.136,5.717,0.047,8.538,0.113c-0.194,1.821-0.476,3.566-0.653,5.401c-4.921,0.016-10.01-0.064-14.534-0.068
				c0.791-7,1.718-13.887,2.6-20.807c-0.061-0.113,0.118-0.324,0.134-0.155C42.289,9.092,44.282,9.236,46.112,9.146z"/>
		</g>
		<g>
			<path fill-rule="evenodd" clip-rule="evenodd" fill="#FFFFFF" d="M55.661,9.25c5.217,0.397,11.689-1.018,14.81,1.707
				c4.163,3.632,2.42,12.424-0.329,15.784c-1.625,1.987-4.281,3.336-7.449,3.558c-3.2,0.225-6.419-0.196-9.764-0.086
				c0.867-6.914,1.765-13.8,2.606-20.735C55.592,9.415,55.562,9.277,55.661,9.25z M60.726,16.129
				c-0.359,3.107-0.75,5.563-1.071,8.705c1.366-0.047,2.134,0.184,3.393-0.055c2.63-0.5,4.099-3.777,3.811-6.593
				c-0.433-4.215-5.553-3.521-9.488-3.434C58.541,15.326,59.782,15.795,60.726,16.129z"/>
		</g>
		<g>
			<path fill-rule="evenodd" clip-rule="evenodd" fill="#FFFFFF" d="M91.383,9.43c-0.166,1.867-0.477,3.61-0.647,5.473
				c-3.299-0.055-6.628-0.076-9.98-0.069c-0.246,0.726-0.251,1.66-0.378,2.488c2.916,0.19,6.143,0.017,9.118,0.138
				c-0.235,1.629-0.476,3.253-0.615,4.963c-2.865,0.113-6.074-0.044-9.107,0.006c-0.205,0.763-0.234,1.674-0.379,2.488
				c3.354,0.146,6.887,0.085,10.345,0.112c-0.22,1.799-0.502,3.543-0.652,5.401c-5.49,0.028-10.869-0.075-16.341-0.067
				c0.794-6.998,1.723-13.881,2.601-20.808c-0.063-0.113,0.118-0.324,0.131-0.154C80.979,9.34,85.982,9.478,91.383,9.43z"/>
		</g>
		<g>
			<path fill-rule="evenodd" clip-rule="evenodd" fill="#FFFFFF" d="M110.409,9.644c0.002,0.023,0.004,0.047,0.006,0.071
				c-0.268,1.445-0.435,2.977-0.577,4.527c-2.364,2.497-8.576,9.313-9.4,9.554c-1.259,0.368-2.264,0.631-4.432,1.382
				c4.013,0.214,8.814,0.007,12.776,0.281c-0.134,1.758-0.44,3.371-0.602,5.107c-0.168,0.014-0.334,0.027-0.503,0.041
				c-5.596-0.145-11.008-0.023-16.782-0.177c0.142-1.708,0.372-3.341,0.614-4.965c3.081-3.26,6.481-6.718,9.619-9.876
				c0.155-0.154,0.54-0.33,0.457-0.615c-2.706-0.097-5.61,0.039-8.251-0.135c0.274-1.752,0.409-3.623,0.729-5.334
				C99.546,9.511,105.054,9.487,110.409,9.644z"/>
		</g>
	</g>
	<g>
		<path fill="#684FE1" d="M141.66,29.987l1.222-8.282c0.328-2.175,0.774-4.946,1.341-7.835h-0.089
			c-1.103,2.592-2.354,5.362-3.456,7.567l-4.111,8.223h-3.337l-0.715-8.133c-0.179-2.205-0.328-4.976-0.447-7.657h-0.06
			c-0.566,2.651-1.162,5.661-1.668,7.835l-1.996,8.282h-3.933l5.035-20.08h5.75l0.625,7.627c0.119,1.877,0.328,4.171,0.358,6.405
			h0.119c0.775-2.234,1.847-4.588,2.711-6.405l3.724-7.627h5.81l-2.711,20.08H141.66z"/>
		<path fill="#684FE1" d="M169.128,17.951c0,3.665-1.281,7.21-3.575,9.474c-1.876,1.817-4.409,2.89-7.418,2.89
			c-5.214,0-8.134-3.695-8.134-8.372c0-3.635,1.341-7.24,3.694-9.504c1.877-1.788,4.439-2.86,7.329-2.86
			C166.328,9.579,169.128,13.154,169.128,17.951z M157.062,14.673c-1.609,1.579-2.503,4.707-2.503,7.121
			c0,2.83,1.281,4.945,4.201,4.945c1.251,0,2.443-0.566,3.367-1.459c1.579-1.579,2.443-4.886,2.443-7.21
			c0-2.503-0.894-4.916-4.052-4.916C159.177,13.154,157.985,13.72,157.062,14.673z"/>
		<path fill="#684FE1" d="M173.863,10.234c1.43-0.269,3.277-0.477,5.273-0.477c2.085,0,3.635,0.268,4.976,1.073
			c1.34,0.685,2.324,1.966,2.324,3.665c0,2.532-1.877,4.141-4.052,4.767v0.09c1.937,0.596,3.158,2.175,3.158,4.379
			c0,2.145-1.162,3.724-2.741,4.767c-1.698,1.132-4.23,1.608-7.567,1.608c-2.264,0-4.082-0.149-5.065-0.357L173.863,10.234z
			 M174.936,26.68c0.506,0.059,1.013,0.089,1.639,0.089c2.324,0,4.439-0.924,4.439-3.158c0-1.996-1.668-2.592-3.665-2.592h-1.34
			L174.936,26.68z M176.664,17.891h1.43c2.354,0,3.962-1.013,3.962-2.711c0-1.459-1.192-2.085-2.831-2.085
			c-0.745,0-1.34,0.06-1.668,0.149L176.664,17.891z"/>
		<path fill="#684FE1" d="M195.492,9.907l-3.814,20.08h-4.29l3.813-20.08H195.492z"/>
		<path fill="#684FE1" d="M199.453,9.907h4.29l-3.098,16.326h7.716l-0.715,3.754H195.64L199.453,9.907z"/>
		<path fill="#684FE1" d="M223.197,21.466h-7.15l-0.923,4.856h8.014l-0.685,3.665h-12.305l3.813-20.08h11.888l-0.715,3.664h-7.567
			l-0.834,4.291h7.15L223.197,21.466z"/>
	</g>
	<g>
		<path fill="#1AD2CD" d="M118.417,43.4h1.532l-2.947,7.6h-2.008l0.005-7.6h1.527c0.003,1.396-0.079,3.446-0.247,6.153
			C117.165,46.844,117.877,44.792,118.417,43.4z"/>
		<path fill="#1AD2CD" d="M120.834,51l1.478-7.6h1.509l-1.478,7.6H120.834z"/>
		<path fill="#1AD2CD" d="M129.792,43.4h1.532l-2.947,7.6h-2.008l0.004-7.6h1.527c0.003,1.396-0.079,3.446-0.247,6.153
			C128.54,46.844,129.253,44.792,129.792,43.4z"/>
		<path fill="#1AD2CD" d="M133.993,49.594h2.516L136.234,51h-4.024l1.478-7.6h4.024l-0.274,1.406h-2.515l-0.328,1.689h2.093
			l-0.274,1.41h-2.093L133.993,49.594z"/>
		<path fill="#1AD2CD" d="M142.857,51l1.478-7.6h1.509l-1.204,6.194h2.093L146.459,51H142.857z"/>
		<path fill="#1AD2CD" d="M150.571,49.459L149.964,51h-1.527l2.951-7.6h2.008l-0.009,7.6h-1.532l0.004-1.541H150.571z
			 M151.119,48.054h0.736l0.261-3.239L151.119,48.054z"/>
		<path fill="#1AD2CD" d="M161.645,49.594h2.516L163.886,51h-4.024l1.478-7.6h4.024l-0.274,1.406h-2.516l-0.328,1.689h2.093
			l-0.274,1.41h-2.093L161.645,49.594z"/>
		<path fill="#1AD2CD" d="M167.544,51h-1.532l1.882-3.8l-0.404-3.8h1.532c0.075,0.694,0.141,1.726,0.197,3.095
			c0.59-1.369,1.057-2.4,1.401-3.095h1.536l-1.886,3.8l0.409,3.8h-1.536c-0.078-0.698-0.144-1.729-0.198-3.095
			C168.355,49.271,167.888,50.302,167.544,51z"/>
		<path fill="#1AD2CD" d="M174.633,43.4h3.333c0.302,0,0.543,0.1,0.723,0.301c0.183,0.204,0.246,0.449,0.188,0.737l-0.382,1.958
			c-0.11,0.578-0.422,1.043-0.934,1.396c-0.482,0.333-1.035,0.499-1.657,0.499h-0.714L174.665,51h-1.509L174.633,43.4z
			 M175.868,44.806l-0.404,2.08h0.714c0.476,0,0.746-0.163,0.809-0.489l0.31-1.59H175.868z"/>
		<path fill="#1AD2CD" d="M182,49.594h2.515L184.242,51h-4.024l1.478-7.6h4.024l-0.274,1.406h-2.515l-0.328,1.689h2.093l-0.274,1.41
			h-2.093L182,49.594z"/>
		<path fill="#1AD2CD" d="M188.833,48.292L188.308,51h-1.509l1.478-7.6h3.333c0.302,0,0.543,0.1,0.723,0.301
			c0.183,0.204,0.246,0.449,0.188,0.737l-0.381,1.958c-0.096,0.497-0.366,0.894-0.809,1.19c0.326,0.296,0.441,0.696,0.346,1.199
			L191.246,51h-1.509l0.431-2.214c0.027-0.138-0.004-0.256-0.094-0.355c-0.09-0.093-0.207-0.139-0.351-0.139H188.833z
			 M189.997,46.886c0.144,0,0.278-0.048,0.404-0.144c0.125-0.093,0.202-0.208,0.229-0.346l0.31-1.59h-1.429l-0.404,2.08H189.997z"/>
		<path fill="#1AD2CD" d="M194.112,51l1.478-7.6h1.509l-1.478,7.6H194.112z"/>
		<path fill="#1AD2CD" d="M200.393,49.594h2.516L202.634,51h-4.024l1.478-7.6h4.024l-0.274,1.406h-2.515l-0.328,1.689h2.093
			l-0.274,1.41h-2.093L200.393,49.594z"/>
		<path fill="#1AD2CD" d="M207.653,46.104L206.701,51h-1.509l1.478-7.6h2.093l0.278,4.918l0.957-4.918h1.509l-1.478,7.6h-2.088
			L207.653,46.104z"/>
		<path fill="#1AD2CD" d="M217.086,44.806h-1.428l-0.93,4.788h1.428l0.225-1.164h1.509l-0.296,1.532
			c-0.057,0.288-0.216,0.533-0.476,0.737c-0.258,0.2-0.538,0.301-0.84,0.301h-2.219c-0.302,0-0.543-0.101-0.723-0.301
			c-0.183-0.204-0.246-0.449-0.188-0.737l1.073-5.524c0.057-0.288,0.216-0.533,0.476-0.737c0.258-0.201,0.538-0.301,0.84-0.301
			h2.219c0.302,0,0.543,0.1,0.723,0.301c0.183,0.204,0.246,0.449,0.189,0.737l-0.296,1.527h-1.509L217.086,44.806z"/>
		<path fill="#1AD2CD" d="M220.062,51l1.478-7.6h1.509L221.57,51H220.062z"/>
		<path fill="#1AD2CD" d="M226.261,49.459L225.655,51h-1.527l2.951-7.6h2.007l-0.009,7.6h-1.532l0.004-1.541H226.261z
			 M226.809,48.054h0.736l0.261-3.239L226.809,48.054z"/>
	</g>
</g>
</svg>
