<?xml version="1.0" encoding="utf-8"?>
<!-- Generator: Adobe Illustrator 16.0.0, SVG Export Plug-In . SVG Version: 6.00 Build 0)  -->
<!DOCTYPE svg PUBLIC "-//W3C//DTD SVG 1.1//EN" "http://www.w3.org/Graphics/SVG/1.1/DTD/svg11.dtd">
<svg version="1.1" xmlns="http://www.w3.org/2000/svg" xmlns:xlink="http://www.w3.org/1999/xlink" x="0px" y="0px" width="174px"
	 height="41px" viewBox="0 0 174 41" enable-background="new 0 0 174 41" xml:space="preserve">
<g id="Capa_1" display="none">
</g>
<g id="Capa_2">
	<g>
		<polygon fill="#FCEE21" points="168.451,30.461 83.726,30.461 88.61,3.293 173.335,3.293 		"/>
	</g>
	<g>
		<g>
			<path fill-rule="evenodd" clip-rule="evenodd" fill="#1A1A1A" d="M6.003,8.594c0.331,3.153,0.753,6.2,1.118,9.316
				c1.203-3.074,2.303-6.239,3.506-9.315c1.478,0.017,2.942,0.051,4.465,0.016c-2.035,5.221-4.239,10.297-6.365,15.441
				c-1.611-0.032-3.251-0.035-4.892-0.035C3.082,18.915,2.208,13.646,1.592,8.574C3.118,8.542,4.673,8.561,6.003,8.594z"/>
		</g>
		<g>
			<path fill-rule="evenodd" clip-rule="evenodd" fill="#1A1A1A" d="M23.015,8.668c1.121,5.115,2.162,10.323,3.257,15.47
				c-1.568,0.047-3.041-0.013-4.572-0.006c-0.127-0.699-0.187-1.476-0.331-2.153c-1.378-0.135-2.938-0.056-4.417-0.071
				c-0.427,0.652-0.622,1.503-0.993,2.204c-1.426-0.04-2.866-0.063-4.359-0.023c1.602-3.744,3.513-7.656,5.301-11.477
				c0.619-1.327,1.261-2.903,1.917-3.926C20.263,8.625,21.578,8.718,23.015,8.668z M18.607,17.738
				c-0.587,0.156-1.968,0.563-2.481,0.781c1.548-0.065,3.185,0.139,4.757,0.045c-0.194-1.602-0.367-3.228-0.693-4.674
				C19.648,15.363,19.245,16.346,18.607,17.738z"/>
		</g>
		<g>
			<path fill-rule="evenodd" clip-rule="evenodd" fill="#1A1A1A" d="M33.541,8.73c-0.416,3.861-0.953,7.619-1.424,11.432
				c2.031,0.101,4.204,0.035,6.277,0.083c-0.142,1.339-0.35,2.622-0.48,3.971c-3.618,0.011-7.359-0.047-10.685-0.05
				c0.582-5.147,1.263-10.209,1.912-15.298c-0.045-0.083,0.087-0.238,0.098-0.114C30.73,8.69,32.196,8.796,33.541,8.73z"/>
		</g>
		<g>
			<path fill-rule="evenodd" clip-rule="evenodd" fill="#1A1A1A" d="M40.562,8.807c3.835,0.292,8.593-0.749,10.888,1.255
				c3.061,2.67,1.779,9.134-0.242,11.604c-1.194,1.461-3.148,2.453-5.477,2.616c-2.353,0.165-4.719-0.145-7.179-0.063
				c0.638-5.083,1.298-10.146,1.917-15.245C40.511,8.927,40.489,8.826,40.562,8.807z M44.285,13.864
				c-0.264,2.285-0.551,4.09-0.787,6.4c1.004-0.035,1.568,0.135,2.494-0.041c1.933-0.368,3.013-2.777,2.801-4.848
				c-0.318-3.098-4.083-2.588-6.976-2.524C42.679,13.273,43.591,13.619,44.285,13.864z"/>
		</g>
		<g>
			<path fill-rule="evenodd" clip-rule="evenodd" fill="#1A1A1A" d="M66.824,8.938c-0.122,1.373-0.35,2.654-0.476,4.023
				c-2.425-0.04-4.873-0.055-7.337-0.051c-0.181,0.534-0.185,1.22-0.278,1.829c2.143,0.14,4.516,0.013,6.704,0.102
				c-0.172,1.198-0.35,2.392-0.452,3.65c-2.106,0.083-4.466-0.034-6.695,0.004c-0.15,0.561-0.172,1.231-0.279,1.83
				c2.466,0.107,5.064,0.063,7.606,0.082c-0.162,1.323-0.37,2.605-0.479,3.971c-4.037,0.021-7.991-0.055-12.014-0.05
				c0.583-5.145,1.266-10.206,1.912-15.297c-0.046-0.083,0.086-0.239,0.097-0.114C59.175,8.873,62.854,8.974,66.824,8.938z"/>
		</g>
		<g>
			<path fill-rule="evenodd" clip-rule="evenodd" fill="#1A1A1A" d="M80.813,9.096c0.001,0.018,0.002,0.035,0.004,0.052
				c-0.197,1.063-0.319,2.188-0.424,3.329c-1.738,1.836-6.305,6.847-6.911,7.024c-0.926,0.271-1.665,0.464-3.259,1.016
				c2.95,0.158,6.48,0.006,9.393,0.207c-0.099,1.292-0.324,2.478-0.442,3.754c-0.124,0.01-0.246,0.02-0.37,0.03
				c-4.114-0.106-8.093-0.017-12.339-0.129c0.104-1.256,0.273-2.457,0.452-3.65c2.265-2.396,4.765-4.939,7.071-7.261
				c0.114-0.114,0.397-0.243,0.336-0.452c-1.99-0.071-4.125,0.029-6.066-0.1c0.202-1.288,0.3-2.664,0.537-3.922
				C72.826,8.998,76.876,8.98,80.813,9.096z"/>
		</g>
	</g>
	<g>
		<path fill="#684FE1" d="M86.586,33.509h1.09l-2.097,5.409H84.15l0.003-5.409h1.087c0.002,0.994-0.057,2.453-0.176,4.379
			C85.695,35.96,86.203,34.501,86.586,33.509z"/>
		<path fill="#684FE1" d="M88.307,38.918l1.052-5.409h1.074l-1.052,5.409H88.307z"/>
		<path fill="#684FE1" d="M94.682,33.509h1.09l-2.097,5.409h-1.429l0.003-5.409h1.087c0.002,0.994-0.056,2.453-0.176,4.379
			C93.791,35.96,94.298,34.501,94.682,33.509z"/>
		<path fill="#684FE1" d="M97.671,37.918h1.79l-0.195,1h-2.864l1.052-5.409h2.864l-0.195,1.001h-1.79L98.1,35.712h1.49l-0.195,1.004
			h-1.49L97.671,37.918z"/>
		<path fill="#684FE1" d="M103.98,38.918l1.051-5.409h1.074l-0.856,4.409h1.489l-0.195,1H103.98z"/>
		<path fill="#684FE1" d="M109.469,37.822l-0.432,1.096h-1.086l2.1-5.409h1.429l-0.007,5.409h-1.089l0.003-1.096H109.469z
			 M109.859,36.821h0.524l0.185-2.305L109.859,36.821z"/>
		<path fill="#684FE1" d="M117.351,37.918h1.79l-0.195,1h-2.864l1.052-5.409h2.864l-0.195,1.001h-1.79l-0.233,1.202h1.489
			l-0.195,1.004h-1.489L117.351,37.918z"/>
		<path fill="#684FE1" d="M121.548,38.918h-1.09l1.339-2.704l-0.288-2.705h1.09c0.053,0.495,0.1,1.229,0.141,2.203
			c0.42-0.974,0.752-1.708,0.997-2.203h1.093l-1.342,2.705l0.291,2.704h-1.093c-0.056-0.497-0.103-1.23-0.141-2.202
			C122.126,37.688,121.793,38.421,121.548,38.918z"/>
		<path fill="#684FE1" d="M126.594,33.509h2.372c0.215,0,0.387,0.072,0.515,0.215c0.129,0.145,0.174,0.319,0.134,0.524l-0.271,1.394
			c-0.079,0.411-0.301,0.742-0.665,0.994c-0.344,0.237-0.736,0.355-1.18,0.355h-0.508l-0.375,1.927h-1.073L126.594,33.509z
			 M127.473,34.51l-0.288,1.479h0.508c0.339,0,0.53-0.116,0.576-0.348l0.22-1.132H127.473z"/>
		<path fill="#684FE1" d="M131.836,37.918h1.79l-0.195,1h-2.864l1.052-5.409h2.864l-0.194,1.001h-1.79l-0.234,1.202h1.49
			l-0.195,1.004h-1.489L131.836,37.918z"/>
		<path fill="#684FE1" d="M136.699,36.991l-0.374,1.927h-1.074l1.052-5.409h2.372c0.215,0,0.387,0.072,0.515,0.215
			c0.13,0.145,0.175,0.319,0.134,0.524l-0.271,1.394c-0.068,0.353-0.26,0.636-0.576,0.847c0.232,0.211,0.314,0.496,0.246,0.854
			l-0.307,1.576h-1.074l0.307-1.576c0.019-0.098-0.003-0.182-0.067-0.252c-0.064-0.066-0.147-0.099-0.249-0.099H136.699z
			 M137.527,35.99c0.102,0,0.198-0.034,0.288-0.102c0.089-0.066,0.144-0.148,0.163-0.246l0.22-1.132h-1.016l-0.288,1.479H137.527z"
			/>
		<path fill="#684FE1" d="M140.456,38.918l1.052-5.409h1.074l-1.052,5.409H140.456z"/>
		<path fill="#684FE1" d="M144.926,37.918h1.79l-0.195,1h-2.864l1.051-5.409h2.864l-0.195,1.001h-1.79l-0.233,1.202h1.489
			l-0.195,1.004h-1.489L144.926,37.918z"/>
		<path fill="#684FE1" d="M150.092,35.434l-0.677,3.484h-1.074l1.052-5.409h1.49l0.198,3.5l0.681-3.5h1.074l-1.051,5.409h-1.486
			L150.092,35.434z"/>
		<path fill="#684FE1" d="M156.806,34.51h-1.017l-0.662,3.408h1.017l0.16-0.828h1.074l-0.21,1.09
			c-0.041,0.205-0.153,0.379-0.339,0.524c-0.184,0.143-0.382,0.214-0.598,0.214h-1.58c-0.214,0-0.386-0.071-0.514-0.214
			c-0.129-0.145-0.174-0.32-0.134-0.524l0.764-3.932c0.04-0.205,0.153-0.379,0.339-0.524c0.183-0.143,0.382-0.215,0.598-0.215h1.579
			c0.216,0,0.387,0.072,0.515,0.215c0.13,0.145,0.175,0.319,0.134,0.524l-0.21,1.087h-1.074L156.806,34.51z"/>
		<path fill="#684FE1" d="M158.922,38.918l1.052-5.409h1.074l-1.052,5.409H158.922z"/>
		<path fill="#684FE1" d="M163.335,37.822l-0.432,1.096h-1.086l2.1-5.409h1.429l-0.007,5.409h-1.089l0.003-1.096H163.335z
			 M163.725,36.821h0.524l0.185-2.305L163.725,36.821z"/>
	</g>
	<g>
		<path fill="#1A1A1A" d="M96.08,21.395c0.934,0.561,2.265,1.004,3.712,1.004c1.308,0,2.498-0.607,2.498-1.844
			c0-0.887-0.677-1.471-2.125-2.218c-1.681-0.911-3.269-2.125-3.269-4.179c0-3.175,2.778-5.113,6.21-5.113
			c1.914,0,3.035,0.42,3.712,0.794l-1.051,2.802c-0.514-0.28-1.634-0.724-2.941-0.701c-1.564,0-2.381,0.794-2.381,1.658
			c0,0.911,0.957,1.471,2.288,2.218c1.914,1.004,3.128,2.288,3.128,4.156c0,3.502-2.895,5.299-6.396,5.299
			c-2.195,0-3.759-0.56-4.506-1.121L96.08,21.395z"/>
		<path fill="#1A1A1A" d="M112.588,12.244h-4.156l0.584-2.942h11.696l-0.561,2.942h-4.202l-2.405,12.793h-3.362L112.588,12.244z"/>
		<path fill="#1A1A1A" d="M134.91,15.605c0,2.872-1.004,5.649-2.802,7.424c-1.471,1.424-3.455,2.265-5.813,2.265
			c-4.085,0-6.374-2.895-6.374-6.56c0-2.848,1.051-5.673,2.895-7.448c1.471-1.4,3.479-2.241,5.743-2.241
			C132.715,9.045,134.91,11.847,134.91,15.605z M125.455,13.037c-1.261,1.237-1.961,3.689-1.961,5.58
			c0,2.218,1.004,3.875,3.292,3.875c0.98,0,1.914-0.443,2.638-1.144c1.237-1.237,1.914-3.829,1.914-5.65
			c0-1.961-0.7-3.852-3.175-3.852C127.112,11.847,126.178,12.29,125.455,13.037z"/>
		<path fill="#1A1A1A" d="M138.672,9.605c1.05-0.257,2.638-0.42,4.202-0.42c1.494,0,3.035,0.233,4.132,0.911
			c1.027,0.607,1.751,1.611,1.751,3.082c0,2.334-1.564,3.782-3.572,4.436v0.093c0.934,0.397,1.331,1.447,1.494,2.872
			c0.187,1.751,0.327,3.805,0.607,4.459h-3.455c-0.14-0.42-0.303-1.774-0.467-3.712c-0.14-1.915-0.794-2.498-2.125-2.498h-1.027
			l-1.167,6.21h-3.339L138.672,9.605z M140.703,16.306h1.401c1.821,0,3.152-1.097,3.152-2.638c0-1.261-1.074-1.821-2.405-1.821
			c-0.63,0-1.027,0.047-1.307,0.117L140.703,16.306z"/>
		<path fill="#1A1A1A" d="M159.546,18.36h-5.603l-0.724,3.805h6.28l-0.537,2.872h-9.642l2.988-15.735h9.315l-0.561,2.872h-5.93
			l-0.654,3.362h5.603L159.546,18.36z"/>
	</g>
</g>
</svg>
