<?xml version="1.0" encoding="utf-8"?>
<!-- Generator: Adobe Illustrator 16.0.0, SVG Export Plug-In . SVG Version: 6.00 Build 0)  -->
<!DOCTYPE svg PUBLIC "-//W3C//DTD SVG 1.1//EN" "http://www.w3.org/Graphics/SVG/1.1/DTD/svg11.dtd">
<svg version="1.1" id="Capa_1" xmlns="http://www.w3.org/2000/svg" xmlns:xlink="http://www.w3.org/1999/xlink" x="0px" y="0px"
	 width="174px" height="41px" viewBox="0 0 174 41" enable-background="new 0 0 174 41" xml:space="preserve">
<g>
	<g>
		<polygon fill="#FCEE21" points="168.047,30.178 83.858,30.178 88.711,3.182 172.9,3.182 		"/>
	</g>
	<g>
		<g>
			<path fill-rule="evenodd" clip-rule="evenodd" fill="#1A1A1A" d="M6.627,8.45c0.329,3.133,0.748,6.16,1.11,9.257
				c1.196-3.055,2.288-6.2,3.484-9.256c1.469,0.016,2.924,0.051,4.437,0.015c-2.023,5.188-4.213,10.232-6.326,15.344
				c-1.601-0.032-3.23-0.035-4.86-0.035C3.725,18.705,2.855,13.47,2.243,8.43C3.76,8.398,5.306,8.417,6.627,8.45z"/>
		</g>
		<g>
			<path fill-rule="evenodd" clip-rule="evenodd" fill="#1A1A1A" d="M23.53,8.523c1.114,5.083,2.148,10.257,3.236,15.372
				c-1.558,0.047-3.021-0.013-4.542-0.006c-0.126-0.695-0.186-1.467-0.328-2.139c-1.37-0.135-2.92-0.056-4.39-0.072
				c-0.424,0.648-0.618,1.494-0.986,2.19c-1.417-0.038-2.848-0.063-4.332-0.022c1.592-3.72,3.491-7.608,5.268-11.405
				c0.615-1.318,1.253-2.885,1.904-3.901C20.796,8.48,22.103,8.573,23.53,8.523z M19.151,17.536
				c-0.583,0.155-1.956,0.559-2.466,0.775c1.539-0.064,3.165,0.139,4.728,0.044c-0.193-1.59-0.365-3.207-0.688-4.644
				C20.185,15.175,19.785,16.153,19.151,17.536z"/>
		</g>
		<g>
			<path fill-rule="evenodd" clip-rule="evenodd" fill="#1A1A1A" d="M33.991,8.585c-0.414,3.836-0.947,7.57-1.415,11.36
				c2.018,0.1,4.177,0.034,6.238,0.083c-0.142,1.331-0.348,2.606-0.477,3.946c-3.596,0.011-7.313-0.047-10.618-0.049
				c0.578-5.115,1.256-10.145,1.9-15.201c-0.044-0.083,0.086-0.237,0.097-0.114C31.197,8.545,32.654,8.65,33.991,8.585z"/>
		</g>
		<g>
			<path fill-rule="evenodd" clip-rule="evenodd" fill="#1A1A1A" d="M40.966,8.661c3.812,0.29,8.54-0.744,10.819,1.247
				c3.041,2.653,1.769,9.076-0.24,11.531c-1.187,1.451-3.127,2.438-5.441,2.6c-2.338,0.164-4.69-0.144-7.133-0.063
				c0.633-5.051,1.289-10.082,1.904-15.148C40.917,8.78,40.895,8.68,40.966,8.661z M44.667,13.686
				c-0.263,2.27-0.548,4.065-0.782,6.359c0.998-0.035,1.559,0.135,2.478-0.04c1.922-0.366,2.995-2.759,2.784-4.817
				c-0.317-3.08-4.058-2.573-6.932-2.508C43.07,13.1,43.977,13.442,44.667,13.686z"/>
		</g>
		<g>
			<path fill-rule="evenodd" clip-rule="evenodd" fill="#1A1A1A" d="M67.063,8.792c-0.121,1.363-0.349,2.637-0.473,3.998
				c-2.41-0.041-4.842-0.056-7.291-0.051c-0.18,0.53-0.183,1.212-0.276,1.817c2.13,0.139,4.488,0.013,6.662,0.102
				c-0.171,1.19-0.348,2.377-0.449,3.626c-2.093,0.083-4.438-0.033-6.653,0.004c-0.15,0.558-0.172,1.224-0.277,1.818
				c2.45,0.106,5.031,0.063,7.557,0.082c-0.16,1.314-0.367,2.588-0.476,3.946c-4.012,0.02-7.941-0.055-11.938-0.049
				c0.58-5.113,1.259-10.142,1.9-15.202c-0.047-0.083,0.086-0.237,0.096-0.113C59.462,8.726,63.118,8.827,67.063,8.792z"/>
		</g>
		<g>
			<path fill-rule="evenodd" clip-rule="evenodd" fill="#1A1A1A" d="M80.963,8.949C80.964,8.966,80.966,8.983,80.968,9
				c-0.196,1.056-0.318,2.174-0.422,3.307c-1.727,1.825-6.265,6.804-6.866,6.98c-0.92,0.269-1.655,0.461-3.238,1.009
				c2.931,0.157,6.439,0.006,9.333,0.206c-0.099,1.285-0.322,2.462-0.44,3.731c-0.124,0.01-0.245,0.02-0.368,0.029
				c-4.088-0.105-8.042-0.017-12.26-0.129c0.104-1.248,0.271-2.441,0.449-3.627c2.25-2.381,4.735-4.908,7.027-7.215
				c0.113-0.113,0.394-0.242,0.334-0.45c-1.977-0.071-4.099,0.03-6.029-0.099c0.201-1.28,0.299-2.647,0.533-3.897
				C73.027,8.851,77.051,8.833,80.963,8.949z"/>
		</g>
	</g>
	<g>
		<path fill="#1A1A1A" d="M103.793,23.81l0.893-6.051c0.24-1.588,0.566-3.613,0.979-5.724H105.6
			c-0.806,1.894-1.719,3.918-2.525,5.528l-3.003,6.007h-2.438l-0.522-5.941c-0.131-1.61-0.24-3.635-0.327-5.594h-0.044
			c-0.414,1.938-0.848,4.136-1.219,5.724l-1.458,6.051h-2.873L94.87,9.141h4.2l0.457,5.572c0.088,1.371,0.24,3.046,0.262,4.679
			h0.087c0.566-1.632,1.35-3.352,1.981-4.679l2.72-5.572h4.244l-1.98,14.669H103.793z"/>
		<path fill="#1A1A1A" d="M123.861,15.018c0,2.677-0.936,5.267-2.612,6.921c-1.371,1.328-3.221,2.111-5.419,2.111
			c-3.809,0-5.941-2.699-5.941-6.116c0-2.656,0.979-5.289,2.699-6.943c1.372-1.305,3.243-2.089,5.354-2.089
			C121.814,8.901,123.861,11.513,123.861,15.018z M115.045,12.623c-1.175,1.153-1.828,3.438-1.828,5.202
			c0,2.067,0.936,3.612,3.068,3.612c0.915,0,1.785-0.413,2.459-1.066c1.154-1.154,1.785-3.57,1.785-5.268
			c0-1.828-0.653-3.591-2.96-3.591C116.591,11.513,115.721,11.927,115.045,12.623z"/>
		<path fill="#1A1A1A" d="M127.321,9.38c1.044-0.196,2.394-0.349,3.852-0.349c1.523,0,2.655,0.196,3.635,0.784
			c0.979,0.5,1.697,1.436,1.697,2.677c0,1.85-1.371,3.025-2.959,3.482v0.065c1.414,0.436,2.308,1.589,2.308,3.199
			c0,1.567-0.85,2.721-2.003,3.483c-1.241,0.827-3.09,1.175-5.528,1.175c-1.654,0-2.981-0.108-3.701-0.261L127.321,9.38z
			 M128.104,21.394c0.37,0.043,0.741,0.065,1.198,0.065c1.697,0,3.242-0.674,3.242-2.307c0-1.458-1.219-1.893-2.677-1.893h-0.979
			L128.104,21.394z M129.366,14.974h1.044c1.72,0,2.896-0.74,2.896-1.981c0-1.065-0.871-1.523-2.068-1.523
			c-0.544,0-0.979,0.043-1.219,0.109L129.366,14.974z"/>
		<path fill="#1A1A1A" d="M143.121,9.141l-2.786,14.669h-3.134l2.786-14.669H143.121z"/>
		<path fill="#1A1A1A" d="M146.016,9.141h3.134l-2.263,11.926h5.637L152,23.81h-8.771L146.016,9.141z"/>
		<path fill="#1A1A1A" d="M163.362,17.585h-5.223l-0.675,3.548h5.855l-0.501,2.677h-8.989l2.786-14.669h8.685l-0.522,2.676h-5.529
			l-0.609,3.135h5.224L163.362,17.585z"/>
	</g>
	<g>
		<path fill="#684FE1" d="M86.7,33.208h1.083l-2.084,5.374H84.28l0.003-5.374h1.08c0.002,0.986-0.056,2.437-0.174,4.352
			C85.815,35.643,86.319,34.192,86.7,33.208z"/>
		<path fill="#684FE1" d="M88.41,38.582l1.045-5.374h1.067l-1.045,5.374H88.41z"/>
		<path fill="#684FE1" d="M94.744,33.208h1.083l-2.083,5.374h-1.419l0.003-5.374h1.08c0.002,0.986-0.056,2.437-0.175,4.352
			C93.859,35.643,94.363,34.192,94.744,33.208z"/>
		<path fill="#684FE1" d="M97.715,37.588h1.779l-0.193,0.994h-2.847l1.045-5.374h2.847l-0.194,0.993h-1.779l-0.231,1.195h1.479
			l-0.193,0.997h-1.481L97.715,37.588z"/>
		<path fill="#684FE1" d="M103.984,38.582l1.045-5.374h1.067l-0.852,4.38h1.48l-0.194,0.994H103.984z"/>
		<path fill="#684FE1" d="M109.438,37.492l-0.429,1.09h-1.08l2.086-5.374h1.419l-0.006,5.374h-1.083l0.002-1.09H109.438z
			 M109.826,36.498h0.522l0.184-2.29L109.826,36.498z"/>
		<path fill="#684FE1" d="M117.27,37.588h1.779l-0.194,0.994h-2.846l1.045-5.374h2.846l-0.194,0.993h-1.778l-0.232,1.195h1.48
			l-0.194,0.997h-1.48L117.27,37.588z"/>
		<path fill="#684FE1" d="M121.441,38.582h-1.083l1.331-2.687l-0.286-2.687h1.083c0.053,0.49,0.1,1.221,0.14,2.188
			c0.417-0.968,0.748-1.698,0.991-2.188h1.086l-1.334,2.687l0.289,2.687h-1.086c-0.055-0.494-0.101-1.223-0.139-2.189
			C122.015,37.359,121.685,38.088,121.441,38.582z"/>
		<path fill="#684FE1" d="M126.454,33.208h2.356c0.214,0,0.385,0.071,0.512,0.212c0.129,0.144,0.173,0.318,0.133,0.521l-0.27,1.385
			c-0.078,0.408-0.298,0.738-0.661,0.988c-0.341,0.235-0.731,0.353-1.171,0.353h-0.505l-0.372,1.915h-1.067L126.454,33.208z
			 M127.328,34.201l-0.286,1.472h0.505c0.337,0,0.527-0.115,0.572-0.347l0.219-1.125H127.328z"/>
		<path fill="#684FE1" d="M131.665,37.588h1.778l-0.194,0.994h-2.845l1.044-5.374h2.846l-0.193,0.993h-1.779l-0.231,1.195h1.479
			l-0.194,0.997h-1.48L131.665,37.588z"/>
		<path fill="#684FE1" d="M136.496,36.667l-0.372,1.915h-1.067l1.045-5.374h2.357c0.213,0,0.385,0.071,0.511,0.212
			c0.129,0.144,0.173,0.318,0.134,0.521l-0.271,1.385c-0.067,0.351-0.258,0.632-0.571,0.842c0.23,0.21,0.313,0.492,0.244,0.848
			l-0.305,1.566h-1.067l0.305-1.566c0.019-0.097-0.003-0.181-0.066-0.251c-0.063-0.066-0.146-0.098-0.248-0.098H136.496z
			 M137.319,35.673c0.101,0,0.196-0.034,0.286-0.102c0.089-0.065,0.143-0.146,0.162-0.245l0.219-1.125h-1.01l-0.286,1.472H137.319z"
			/>
		<path fill="#684FE1" d="M140.229,38.582l1.045-5.374h1.067l-1.046,5.374H140.229z"/>
		<path fill="#684FE1" d="M144.671,37.588h1.779l-0.194,0.994h-2.846l1.044-5.374h2.847l-0.194,0.993h-1.779l-0.231,1.195h1.48
			l-0.195,0.997h-1.479L144.671,37.588z"/>
		<path fill="#684FE1" d="M149.805,35.12l-0.674,3.462h-1.067l1.045-5.374h1.48l0.197,3.478l0.677-3.478h1.067l-1.045,5.374h-1.476
			L149.805,35.12z"/>
		<path fill="#684FE1" d="M156.476,34.201h-1.01l-0.658,3.387h1.01l0.159-0.823h1.067l-0.209,1.083
			c-0.04,0.203-0.152,0.377-0.336,0.521c-0.183,0.142-0.38,0.212-0.595,0.212h-1.569c-0.213,0-0.384-0.071-0.51-0.212
			c-0.129-0.145-0.173-0.318-0.133-0.521l0.758-3.907c0.041-0.203,0.153-0.377,0.337-0.521c0.183-0.142,0.38-0.212,0.594-0.212
			h1.569c0.214,0,0.384,0.071,0.511,0.212c0.129,0.144,0.174,0.318,0.134,0.521l-0.209,1.08h-1.067L156.476,34.201z"/>
		<path fill="#684FE1" d="M158.579,38.582l1.045-5.374h1.067l-1.045,5.374H158.579z"/>
		<path fill="#684FE1" d="M162.964,37.492l-0.429,1.09h-1.081l2.086-5.374h1.42l-0.006,5.374h-1.083l0.003-1.09H162.964z
			 M163.351,36.498h0.521l0.185-2.29L163.351,36.498z"/>
	</g>
</g>
</svg>
